<mxfile host="65bd71144e">
    <diagram id="Omz8NuV_Lej0NusEcTPA" name="Page-1">
        <mxGraphModel dx="1099" dy="741" grid="1" gridSize="10" guides="1" tooltips="1" connect="1" arrows="1" fold="1" page="1" pageScale="1" pageWidth="827" pageHeight="1169" math="0" shadow="0">
            <root>
                <mxCell id="0"/>
                <mxCell id="1" parent="0"/>
                <mxCell id="19" style="edgeStyle=none;shape=connector;rounded=1;html=1;exitX=0;exitY=0.5;exitDx=0;exitDy=0;entryX=1;entryY=0.57;entryDx=0;entryDy=0;entryPerimeter=0;labelBackgroundColor=default;fontFamily=Helvetica;fontSize=11;fontColor=default;endArrow=none;endFill=0;strokeColor=default;" edge="1" parent="1" source="2" target="4">
                    <mxGeometry relative="1" as="geometry">
                        <Array as="points">
                            <mxPoint x="360" y="220"/>
                            <mxPoint x="590" y="220"/>
                        </Array>
                    </mxGeometry>
                </mxCell>
                <mxCell id="2" value="" style="pointerEvents=1;verticalLabelPosition=bottom;shadow=0;dashed=0;align=center;html=1;verticalAlign=top;shape=mxgraph.electrical.miscellaneous.batteryStack;direction=south;" parent="1" vertex="1">
                    <mxGeometry x="90" y="220" width="60" height="100" as="geometry"/>
                </mxCell>
                <mxCell id="3" value="" style="pointerEvents=1;verticalLabelPosition=bottom;shadow=0;dashed=0;align=center;html=1;verticalAlign=top;shape=mxgraph.electrical.resistors.resistor_2;" parent="1" vertex="1">
                    <mxGeometry x="322" y="353" width="96" height="20" as="geometry"/>
                </mxCell>
                <mxCell id="6" style="edgeStyle=none;shape=connector;rounded=1;html=1;exitX=0;exitY=0.57;exitDx=0;exitDy=0;exitPerimeter=0;labelBackgroundColor=default;fontFamily=Helvetica;fontSize=11;fontColor=default;startArrow=none;startFill=0;endArrow=none;endFill=0;strokeColor=default;" parent="1" source="4" target="3" edge="1">
                    <mxGeometry relative="1" as="geometry"/>
                </mxCell>
                <mxCell id="4" value="" style="verticalLabelPosition=bottom;shadow=0;dashed=0;align=center;html=1;verticalAlign=top;shape=mxgraph.electrical.opto_electronics.led_2;pointerEvents=1;" parent="1" vertex="1">
                    <mxGeometry x="490" y="320" width="100" height="70" as="geometry"/>
                </mxCell>
                <mxCell id="8" value="5 V" style="text;html=1;align=center;verticalAlign=middle;resizable=0;points=[];autosize=1;strokeColor=none;fillColor=none;fontSize=11;fontFamily=Helvetica;fontColor=default;" parent="1" vertex="1">
                    <mxGeometry x="50" y="260" width="30" height="20" as="geometry"/>
                </mxCell>
                <mxCell id="9" value="220&amp;nbsp;&amp;nbsp;Î©" style="text;html=1;align=center;verticalAlign=middle;resizable=0;points=[];autosize=1;strokeColor=none;fillColor=none;fontSize=11;fontFamily=Helvetica;fontColor=default;" parent="1" vertex="1">
                    <mxGeometry x="345" y="380" width="50" height="20" as="geometry"/>
                </mxCell>
                <mxCell id="10" value="LED 1" style="text;html=1;align=center;verticalAlign=middle;resizable=0;points=[];autosize=1;strokeColor=none;fillColor=none;fontSize=11;fontFamily=Helvetica;fontColor=default;" parent="1" vertex="1">
                    <mxGeometry x="515" y="390" width="50" height="20" as="geometry"/>
                </mxCell>
                <mxCell id="11" value="&lt;font style=&quot;font-size: 14px&quot;&gt;Nina Mathew&lt;br&gt;TEJ3M Unit #4-05&lt;br&gt;Switch LED&lt;/font&gt;" style="text;html=1;align=center;verticalAlign=middle;resizable=0;points=[];autosize=1;strokeColor=none;fillColor=none;fontSize=11;fontFamily=Helvetica;fontColor=default;" parent="1" vertex="1">
                    <mxGeometry x="75" y="115" width="130" height="50" as="geometry"/>
                </mxCell>
                <mxCell id="16" style="edgeStyle=none;html=1;exitX=1;exitY=0.115;exitDx=0;exitDy=0;exitPerimeter=0;entryX=1;entryY=0.5;entryDx=0;entryDy=0;endArrow=none;endFill=0;" edge="1" parent="1" source="12" target="2">
                    <mxGeometry relative="1" as="geometry">
                        <Array as="points">
                            <mxPoint x="120" y="370"/>
                        </Array>
                    </mxGeometry>
                </mxCell>
                <mxCell id="17" style="edgeStyle=none;shape=connector;rounded=1;html=1;exitX=0;exitY=0.885;exitDx=0;exitDy=0;exitPerimeter=0;entryX=0;entryY=0.5;entryDx=0;entryDy=0;entryPerimeter=0;labelBackgroundColor=default;fontFamily=Helvetica;fontSize=11;fontColor=default;endArrow=none;endFill=0;strokeColor=default;" edge="1" parent="1" source="12" target="3">
                    <mxGeometry relative="1" as="geometry"/>
                </mxCell>
                <mxCell id="21" style="edgeStyle=none;shape=connector;rounded=1;html=1;exitX=1;exitY=0.885;exitDx=0;exitDy=0;exitPerimeter=0;labelBackgroundColor=default;fontFamily=Helvetica;fontSize=11;fontColor=default;endArrow=none;endFill=0;strokeColor=default;" edge="1" parent="1" source="12">
                    <mxGeometry relative="1" as="geometry">
                        <mxPoint x="205" y="220" as="targetPoint"/>
                    </mxGeometry>
                </mxCell>
                <mxCell id="12" value="" style="pointerEvents=1;verticalLabelPosition=bottom;shadow=0;dashed=0;align=center;html=1;verticalAlign=top;shape=mxgraph.electrical.electro-mechanical.2-way_switch;direction=west;" vertex="1" parent="1">
                    <mxGeometry x="205" y="347" width="75" height="26" as="geometry"/>
                </mxCell>
                <mxCell id="13" value="+" style="text;html=1;align=center;verticalAlign=middle;resizable=0;points=[];autosize=1;strokeColor=none;fillColor=none;" vertex="1" parent="1">
                    <mxGeometry x="90" y="320" width="20" height="20" as="geometry"/>
                </mxCell>
                <mxCell id="14" value="-" style="text;html=1;align=center;verticalAlign=middle;resizable=0;points=[];autosize=1;strokeColor=none;fillColor=none;" vertex="1" parent="1">
                    <mxGeometry x="90" y="200" width="20" height="20" as="geometry"/>
                </mxCell>
                <mxCell id="26" value="" style="shape=image;verticalLabelPosition=bottom;labelBackgroundColor=#ffffff;verticalAlign=top;aspect=fixed;imageAspect=0;image=data:image/png,iVBORw0KGgoAAAANSUhEUgAAAW4AAAEDCAIAAACaqnlcAAAgAElEQVR4nO29WXMbSXa/XYXaCwUU9h0gSILUQqm1Dil1T1vtscd2xIQdDofD/iDzOeYr2OH78YUjPOHonnFo/jPR6qZaUmuhJErcQBIk9h1VqL3ei2PhZWgjRUEiqT7PlYQCC1lZmb885+TJTNJ1XQJBEOT98Bx1ARAE+RRAKUEQZAyglCAIMgboVz/SNG04HNq2/fFLgyDICYJlWUEQGIYhXisljx8//vOf/1yr1T56wRAEOUnMzMx8+eWXhUKBeK2UPHr06N///d+fPn360QuGIMhJ4pe//GUul3ujlDiOY1lWOp2+fPlyNpv96MVDEOS48/Tp07t379q27TgOfPIaKQHy+fw///M/f/HFFx+rbAiCnBj+8z//c2tra+8nb5QSQRBisVgul/vwpUIQ5IQRCoUg2joCJ4MRBBkDKCUIgowBlBIEQcYASgmCIGMApQRBkDGAUoIgyBhAKUEQZAyglCAIMgZQShAEGQMoJQiCjAGUEgRBxgBKCYIgYwClBEGQMYBSgiDIGHjjJgMv4bqu67rD4XA4HJqmOdryhCRJmqYZhuF5XhAEj8dDkqTrurZtW5al67rjODzPcxxHkiRJkuMtveu6juM4jqPruq7rLMvyPE9R1Hv+FtzWsixN0wzD4Hme53mPxwNP9+r39RcYhvGWPXE5jhMEgWVZhmFIktz7V6+eRuTxeLgXsCw79qp7C/D4mqbpus4wDMMwFEV5PB6oEMdxRkXyeDzwNY/HwzAMTdPwzUP8qG3bpmkahjEcDnVd33tpb71RFPWez2XbNtQ5x3E8z0NzhZ92XRcq/IDtB9qeaZpQYJ7noVo+5ss6PhxISqCuTdN88uTJ48ePq9Vqs9mE6mNZNhQKxWKxubm5s2fP8jzPMIxhGKqq1mq1jY2NwWAwOztbKBRAccZby47jqKra7/c3NjY2NjYmJiZmZ2cDgQC06UPf1jRNVVWbzebz589LpdLs7OzMzIzP5xNF8dXbOo6zs7Oz8YLBYPCm205OTp49ezafz8fjcYqiisXi6K9GW1GNEEVx8gX5fJ6mDyr67wn0t8FgsLKysrGxEY/HE4kEPHuj0Xj+/PlwOJycnMxkMqCwxWJxZWVFFMVEIhEOh2VZFkXxEL87GAwqlcrm5ubjx4+LxeLeS5OTk3NzcxMTE/F4XJblQz+aZVmqqna73Y2Njc3NzdnZ2dnZWYqiTNOEtmqa5uzsbD6fBwHd94a6rququru7u7GxQZLk7OxsNps94N9+ehxUSkAdnj59+vXXXz979mxzc7Pf7xME4fV6JyYmYHPHbDZLkiRFUYZh9Pv9Uql0586dRqPBMAy0vLFXsW3b0OeXlpZu3bo1Pz8fjUZFUfR4PO8jJZZlKYqys7Nz+/btH3/8cTgchkIhiqLA5Hnpy47j7O7u3rt377vvvrt161aj0XjTuHT9+nVN02ia9vl8NE1vbGx899138FeO47z0J8Fg8Nq1a9euXaNpOp1Og6l16Cc6OGBRqqq6srJy69atM2fO2LYdi8Vc193d3V1cXOx2u5Zl+Xw+x3Fomi4Wi99++20wGDx79ixBEDzPv6uUgEXW7/e3trZu37799ddfLy4u7v3CtWvXVFUlCEIURb/fTxDE4aoCnqtWqz18+PDOnTuO4ySTSYZhhsNhsVj87rvvNE1jWTaZTJIkeUAp6Xa76+vrt27d8ng8sFsYGGiHKN5JZx8pATtfUZTl5eXl5eVmszkxMZHNZsHaJ160PJIkm83m119/PTs7e/r0aY7jJEmamJggCEJRlEKh8CF05LgRi8UuX77MsmwqlQoEAq9+IZfLnTp1KpfLeb1esOloms7lcq7rJhKJVCrF8zyxx2sjSbLX662vr3s8nnQ6nU6nBUH40E8Bg4HX6z1z5owoirFYLBaLfdDX1+l0ms3m+vr606dP+/3+wsLC1atXaZqmadqyLMuyKIrqdrtPnjwhCELTtEgk8trq3Reapr1ebyKRuHz5ciwWm56elmXZNE1N08b9TD9F9pEScG263e6jR4+++eabycnJqamp6enpQqEApma/319bW1tdXd3Y2Lh79+5wOASTWJIkn8+XTqcdxxmZfJ+2DxmPx8PhcD6fv3r16ms3sqRpmmVZcL5GUjIxMZFOpy9dunT16lUYckG+m83m999//+OPP66vrzebzYsXL4ZCoY8mJZIknTlzZmZmhqIocAEMw/hAv9jpdNbW1paXl588eUJR1FdffXXlyhXwnjRN0zTtzp07f/zjHzudDkEQruvSNH04KYHnEkUxEolcuHABmmW/3z9ccAd5if2tEoiEKYoyGAwYhonFYolEIhKJQLvneV7XddM0q9Wqoii9Xq/T6QiCIAiCruv1el3TtGQyGYvFDMPQdb3dbrdaLehIhmF0u11VVaHdZLPZbDbr9XohdmXbNnhJ5XJ5MBgMBoNAIBAMBimKchwHBkyv1/umJg7xjk6ns7GxMfK9ZVkOBoPwCLIsvymMesiqpGmapiVJCgaD4XD4IH8ChjTDMD6fLxgMQg8BQ49hmMnJSUVR2u32zs5OPB5vt9sQ2Ns3bgJ30HV9d3e3XC5HIpFYLCaKIsdxpml2Op1er6eqqmEYiUQikUiA19ZutyuVimEYsiyzLNvr9fr9vt/vl2W51+s1Go1Hjx6trKy0221wCgqFwvT0NARiTdMcDAYQ/YHorG3bmUwmk8kEAgFZlt9i1Oi63ul0VFVlWdbv90ej0UQiAUFWkLBUKpXJZNrtdr/f397e9nq9DMN0u91erwevkuM4giD6/X6lUun1eqIoer1e+F3LsgzDaLfbtVrNtu1wOCyKYrPZbLVaYHCVy+XV1dWlpaVnz55pmibLsuu6U1NTk5OT0Dbq9XqpVGo0GoPBwLIsSZL8fj88mmVZo3i5ruuVSuXJkyfNZhPeFM/zyWQym81CfX60aNdRcVApgVrzer2xWGxvy2BZNhKJ2Lb97NkzmJXodDoQcm80Gvfv32+329euXfP5fN1ut9vtrqysLC8v93o9giAgAFav10OhUCgUunHjxldffQWhNY/HYxhGvV5fXFz8/vvvd3d3d3Z2CoXC7Owsy7KGYcTj8YsXL+bz+TfNmJim2W63V1dX/+d//uebb76BD/P5/Ozs7MWLF+fn5yVJIgjifUIqH4iRiwHR1h9++GF5eblSqTSbTUmSZFnet1HCW+v1ektLS4uLi+fOnbt48SLEelVVLZVKm5ub1Wq11+vNz88Hg0GWZQmCqFQqt2/f7vf7k5OTsiwXi8Xt7e18Pp/P56vV6sbGxtLS0qNHj1qtVrPZ3N7evnHjRjAYHA6HMIPW6XQqlcrq6mqpVILR4ssvv/yLv/iLQqEgiuJbpAQia7ZtBwIBaF0wX0YQBE3THo8nEolMT0+XSqVOp1Mqlbxer+u6xWKxWCxeunRJkiR4ic1m88cff9za2gK7eGpqyufzQThjbW3t/v37uq6fPXs2Go0+efLk2bNnly5dunTp0tra2nfffQcqqeu6pmnNZvPGjRvxeBzKsL6+/qc//enx48e7u7vD4TCVSk1MTHz55ZeBQMC27ZGUQMU2m827d+/ev38/GAyGQqFr167duHFjcnLS7/f/1KUEmjXLsqAOzWbz4cOH0Hqi0SjHcdDoI5FIoVBotVpTU1MgNLZtDwaDWq3WaDR6vR5MDKuqurOz8+DBA8uykskky7LBYJAgCNu2G41GuVze2tqiaVoQBNd1a7Xa1tZWrVYbDAYcx6XTaUmSTNPs9XrNZnM4HE5MTKRSqVfLDKNip9NZX19//vy5qqrBYBBMBpZl2+12qVSKxWIMw8CMwwep1/cDrJVgMOi67rNnzwiCME1TURRN00AB9/1zGFE1TWu3291ut9/vy7IsSZJhGJ1Op1arVSoVEHfTNOHLiqLU6/XBYAD+abfb3d3dBTOBIAhRFGEeR9d1WZZDoRBYB2DZwQ85jiMIQigUsm0bXtODBw8oioKgNXz51dIyDOP1ekmS7HQ6uq6vra15vV4YXSB8HgwGp6envV5vo9GwbRvM4X6/v7u7m8/nwSgmCAIC8OVy2XVdiqLi8Ti456qqgrE8mmlutVqlUmlyctKyLDAJ/X6/JEk0TcuyHAgEIGjVarVardbu7q5hGOAW6boOZniz2SwWi3DGpWVZYLYrigLhmHQ67bquqqrVanV9fZ1hmFwu94HyIY4P+0gJRVGCIPj9fjB019bW7ty5c+XKFQi1hsNhSZIYhvH7/RcuXEin0z6fT5Zl27YVRXntDaGHBwKBK1eunDp1imVZmGNeXl62LGt9fV0QhGg0Ck1qfX19ZG1OTk52Op1Wq7W+vl4qlXq93ltcm+FwuLu7u7S0tLa2NjExsbCwIIqiKIo7Ozurq6vdbvfZs2eGYczNzR1PKSEIwuPx8DwPrRzUGfIXXp02fhWSJFmWhfmOcDjMcZxhGIZhjHJwwMwkXmRzQA+HMRZ8NFmWwWuAsSSZTGYyGRjkO53OhQsXzp8/n81mg8GgKIogJeAyXL9+3e/312q1arW6tbV1//59SZKy2SzHcT6fD8yfl/B6vclkcmtra3V1tdPpDAYD+Am/3w+RGjDEkskk+E00TZumCb8LcaXRs8ADwmyjaZrg6EFUVZIkMKtZlgUrhqZpjuNg+haeV9f169evX7lyBTysSqXy4MED27YnJyfPnTvn9XoJgqjVaq1Wy7btpaWlZDKZSqVgeBsMBiRJxuNxsMJWV1fX1tYoilpdXSVJ0u/3BwKBjzYNdyTsIyUej4dlWUmSksnkzMzM48ePIfTw8OFDVVVjsRgMERRFBQKBQqEALu5gMHgpy2gEmAzQMs6ePRuJRGAyqNvtUhTVarVgaBoMBjs7O+Vy2ev1xuPxS5cuXb58uVgsrq2tdTodiqL22pYvAQZzvV4vl8vtdvvixYs3btyQJEmSJCh2vV6v1+s0TWezWZgoGcsLhqGJZdlAINDtdvdeGoVR/H7/a2eUXwUME0j8EwSBpmnbtvcehvb2vwVbEgI3Ho8HAh/hcBhytGAeF8be0VHzhmHA6xZFUZIk6PaQh+b3+0OhkGEYYDLMzMycPXvW5/ONDBOYdZIkCfIyGo3Gzs5Ov9+/d+9eq9UaDAaapr1pkhhmVcCxBYvp6dOnUEUgJVAJoiiGw2GGYUZONPFi2ACHyHEcOA2bIAhIQgN7odvtGobh8/nA/AGniSAImLUVRVEQBMMwKpWKpmmFQuH06dMej8e2bRi3wuHw9PT01NRUPB5nGGZ9fX1zc3MwGIBTBg9umiakYkaj0ZmZmXw+HwgESJKEDCxZllVVdRzn047v7u+/URQliuKpU6cCgcD09PS5c+d2d3dv37797bffCoIAb5Tn+WvXrl2/fj0cDoPP8iZgWieTyUSj0UAgAL5MMBjMZDKGYUAeLUhJp9MZDoeZTKZQKITDYZD2bDZbq9XAPXntEEcQBFiw3W7X4/HIsizLss/n43mepulQKFQoFDiOgyCxruu2bb9nEsqIarW6srJy7969xcXFl9wQMC7OnDlz6dKldDoN49uHhiRJnuch9FipVHiej8VijuNA54S+5/F4Op0OuPGapjEMA52W47h38u1FUYR4Ngz7kiSFQqFwOAx+0Nu7EHg3V69eDQaDW1tblUql0Wj86U9/+sMf/gDeUyKRgINpz5w5M0r6gHtCKAREARqSqqq2bUOMH2ylnZ0dTdMCgQA4aPs+i+u6uq5DPpumaR6PB14fDJPJZNLr9UI8GFoO1CcY6ZDWBG0V4rJvSVn8xNg/VgItEsJvExMTZ86c+f3vf3///v21tTXiRUI9DJvgnYqi6DjOm0wGGIIgMxJ6uGVZfr8/Fot1Op1utwtSoihKt9vVNM3n80EMnCAICLDFYjEIIryprcPE0CgKYBgGqAbkzomiyPP8KPRgWdZ7psaO6PV6W1tbnU7n1fzucDgciUQIgshms+FwGMyBfYG6HdkRb6rSN0GSpCAIwWAQJix8Pp+qqtADYYUBjM+dTgc+BCmB+mFZ9p2GUJ7nI5FIOByG8IEoirIsg2s2iqG+5W95ng8EArOzs6VS6dtvv11cXFxZWYFEEoIgcrnczMyMruuBQAC6NGROsyxrWVa324Umatu2z+eLxWLtdltRFIiMdLvdarXKsmwsFotGozDB/PZnASkBGxO+DFNC8KORSAReJUEQ4HFTFAUrCSDUKggCSZKSJEFJPvlo64h3e05JkuLx+Oeffx4MBlutFkEQtm0Ph0NohXfu3IG4FMdx4L6+CsMw4GtAyPZVzwKkBBIKwGo43IOpqrq1tVUsFmFiAtwoVVUHgwFEDdLpNEjJuMxOcMREUczlci+ZZhCpyeVy+XweLO197zZaBwRRQwh1v1N5YDiNx+OapjUajeFwCL4h3Mrr9UqSRJLkaNg0DEMQhJFr807Aa4X+9q5/C4BTFgwGP/vss1AodPXq1VqtBpdGwZ2NjQ3btnO5XCgUCgaDkLM3HA5H4wpkjsDKKbAIVFXVdR1UAJrcviVxXRc8I2iB4Ly85fuwWoogCEEQQKAPVwMnnXeWEkmSEonE9evX4RPDMFqtVqVSuXnz5s2bNyEIEgqF3nQHsH69Xi+Y0K92YwimjF7koaVkOBxubm7evn379u3bLwlWOByemJiQZXlklRzuJ14iHo/HYrFCoXDt2rV8Pv/qF6AYB4zLQMgQYgGHlhKQfpj4gOUnNE1D3xNFMRQK9Xq9Xq83ujPP8xBHf6cfIl7MwkDo5F3/FhhJSSAQ+Oyzz/aaYEtLS99//z3MhvT7fZ/Pl0gkAoEAJECqqgpp9TzP+/1+n8+nKIqqqiAlYJCKogizkAcsDFQ7NEII377lyxCWgsR5lJI3AqlHEGTq9XoQst67Ko+m6ZE1C5PnMFnwlgp9e18CcxGM3gMOI68FQoCQJpRMJvdegl6UyWSmp6ffNSjwdsAfHK0qeB9gIhPWYcOoC1b0we9MkiTHcX6/H2IfMD0JUQawknieh6liy7LAOwAn5eBd7j2BCZdarba7u0tRVCQSAYfopZXQMHpBBjBE9MGqisfj4BSDCQyRC1gEBAoCuTMw6QNOygFzdiEmDaHAsa9B/VTZX0ra7Xa5XIYkscuXL0cikb0jD4jx3jlLkJJD96XRW4Qm9T5ScurUqUKhcPny5UuXLu29BG0O5kc+8vr9gwNLKEdSAp3knSoEIgggHCMpAXWGmQ4IVPV6PfAIIMMiFApBLOmDPh0AHtzOzs6dO3c4jjt9+jQI8UseliiKyWQS0kYgfmHbtiiK8Xh8lFFNEAQ8GszIQLJ1rVYDoQEpgSjevqWCsC7UDyw++rRnXsbF/mFX2IcCVkDG4/FsNhuJRCDOShCE4zhggXe7XZjHhY566P4JVonX6/X7/RDaKJVKYPoqitJoNOr1OoQ23xKO8fv9kOttmiasxGVZlmXZbrfbaDTA+mVZNh6Ph0Kh4yYlEG3VNK1cLq+trSmKArMhgUDgnYIRoylhmHpQFGVra0sUxUAgANMZ4MuMUjNAdCCU83GkZGTBeTweRVE2NzcNw5iamtq78Y3jOIqi1Gq1drtt2zZ4ENBIRrEemJcFkYUHtG0bpvxt2/Z6vT6fD+LBBxGFkZRAzgHMJ0L6GSywBH9TVVUIwRwiIv5Jsk+7HGVDGIYBhgnYopAoQRAEDGvVarVSqZTL5enpaQitH1rIR1ISDAa73W673V5bW/P5fBMTE71eb3t7u1Qq1Wo1SNx87R14ng+FQrC6p1wuQ04RWEy1Wu3Ro0fValVVVVmWYQXduGZwxgVESRRFKRaL9+/fhzX+8Xg8Eon4fL53Kip0yNG6tVqt5vf7z58/D94oBL9HX4ZMzdfuyfKBgOJBbmulUtnY2Gi3236/P5FIEAQBi60sy2q1Wmtra9Vq1ePxQJQNYqgwt9XtdlutlmEYLMuC4wNGXKPRaDQaMC0NCawH3JYJagy+DA5+p9Pp9/uiKLquWy6Xi8VivV6vVqu5XG5qagqlBNg/RQ1yE2KxWC6Xs217ZWWlWq2OgnOQ6tdutw3DyGazEA8TRfHQwxqMpT6fL5VKwYKItbU113Uh+xtSrSAh4k3WBMuysizDpF23293Z2fnTn/7k8/l8Pt/u7u76+jrE4SAv+y0mySiSv7m5+cMPP8BIPpopgCnPcDjs9/vhYfv9PmRDEQSxsbHx6g0hixTiSvCJ4zgwbw1zXpBvAlIC+zn1+31YUZLL5eDXIYDabrdBDf1+P5iNr32Q0Vy+LMvlchlWwUJyp9frhRF+ZHh6vV6IDrzaMcB8gCHENM1yuby8vJzJZOC/h+5IUDxIwYDnarVaS0tL9Xod8jUgK29nZ6der0MuaS6XCwQC4AS5rguBDCjAKL9uFN4eDAYgJcFgkOO41+oISZIwloD5UyqVYDUm/FUul6Moant7W1EUWBpWrVYbjYbrunt31Ttuhu2RsL+UQMs7f/58MBiENZTNZnPUZ2AmTJKkqampv/u7v5uenoYkItgY6dD4fL7p6WmSJCHjcHl52TCMfD4/OTlJEAQYSm+aswTrNJVKzc3N0TT9+PHjr7/+GkZmsPbz+fzMzMypU6cSicSbOiHxIlrR6XQWFxfv3r0Ld4DmyHGcLMupVGp+fv7ChQswvVKtVp8+fWpZ1rfffvvaVKh8Pn/27NkzZ86cPn16ZNNtbm4+ffp0aWnpf//3f0GdwcEB/wuWpZ07dy4SiUDqhGEY1Wr1wYMHu7u7p0+fPnPmDOzn8JbWDIswK5UKeDqSJIHcj2bQIDg1GrpfnTXzeDyjVI7hcPjgwYPV1dWFhQWv1wt5nAd5p28Cdr2Dt7m2tvb//t//293d3evghEKheDwO9TA1NQWJpFB4SMyF+dpgMChJEmS7jlKKWJYF3/BNrQUaAGh0o9G4d+9epVL52c9+FgwGs9ns559/Dhsg1Ov1UbhXluVz586dP38eTCSMpAD7x0rgneVyuXg8PhgMnj17BmucIB8BNmRkGCaRSMzPz4dCIVmWIW0ZlvnBVD+0FUEQZFmORqOhUAhWNxEvDB+/3w+/BWOvIAgQtN/Y2OB5vtls7uzs+Hy+XC4H4VKIh0E7IEkyEAgkk0loMTDt5/F4pqenXdddXV2tVCrwOLFYLJ1ORyKRyclJmL55bTuAngMr0+LxeKvVqtVqe8deuEQQBET1oBIgytDv94fD4evrmqZjsVi/3zdNE6ZdR8mg4IHv/TJIVSaTyefzsCKBIAjoM8PhENyBcDiczWZhfH7LS4QNGVKpVL1eh5cCyYEj5wIWyEAIDLLgYWFbIpGAVTbgU4AkNZtNCFdByAnWTMHjj+oTKlCWZcgMeHucAgKiBEGAcC8tLb20ISPHcYFAALyJ0UYwo+U5sPiQIIhEIgEDDJiT0NIAcG+hgfE8HwwGU6kUfDja5CESicDimlarpWkaLAiUZdkwjNXVVdgcw7btdDoNO5CePn0aQlqQYAm6NooSQvuBxZBgE33ylsuBYnijVOW5uTmfzwdrrsAqgfV+Xq83l8vByAl2pt/vn5iYgAwiSCUCRxfWTXq93mg0Cu4opMmOlpxB2wVjJxqNLiwsZLPZfr8/GAxg8Nzc3AQXAMLyULALFy4kEglo0xCpge49MzPz93//93Nzc/AgkJcFweO3zDRDhCibzX711VczMzOQX7C3u44aSi6XC4fDNE1Ho9HJycnr16+/SUcIggBhisfjIHnT09M+n292dvarr756dWDnOA6+HIvFRuWEMKosy7D35dvXKIyQJAnqGVapZbPZ0WbamUwGkkch3we8g9HWR8FgEBI9YOY4Ho9fuXJlcnISktOz2WwsFoPbQv8EhQJL1ufzzc3NgbMQi8VgOHl7IaHBpNPpv/qrv9p7KRwOQz28uuMRbIkGTRGkGdqq1+s9e/YsbHAz+nVIQiVJ8sqVK7lcLpVKgXtIEEQ2m71x48b58+cJgoCFvKIo2rYtCAK0edAX13XBS81ms7A+UBCEQqEAVmEqlRrlFkBUCx4HpPzQG2ifFMhXB7R/+7d/+81vfjMxMfHrX//6pZf60YAN6yHfYdTNqtVqtVp98uTJ/fv3ZVn+27/9W9hu66PlQRwTYB+WarUKaSDQ4Y9V5Bj55PmP//iP3/zmN6lU6te//vUvf/lL4l2zXT8CkLbUaDQ2NjZgcVez2YRLICs8z8/MzGSzWRgEflJdaLQOFVKBKYry+/0/BeMZOf4cOykB56VWq929e/f777+H7a3gUjgcDofDX3zxxaVLlyAS+VPrRTA5ClIC/jwEaH5SlYAcT46dlICvHgqF5ubmBEGYnZ0dLeuCXCPYUvQnEsp6CfLFXo2wZ2o0Gh3tY3bURUN+6hw7KYGOAZsqzc3NwSYmcAkCV7DI4n2y4E4uUDmSJMGmtj+FzYeRk8JxbIiwnyBMAx11WY4dMKOJCoIcN35yAzuCIB8ClBIEQcYASgmCIGMApQRBkDGAUoIgyBhAKUEQZAyglCAIMgZQShAEGQMoJQiCjAGUEgRBxgBKCYIgYwClBEGQMYBSgiDIGEApQRBkDKCUIAgyBlBKEAQZAyglCIKMAZQSBEHGAEoJgiBjAKUEQZAxgFKCIMgYQClBEGQMoJQgCDIGUEoQBBkDKCUIgowBlBIEQcYASgmCIGMApQRBkDGAUoIgyBhAKUEQZAyglCAIMgZQShAEGQMoJQiCjAGUEgRBxgBKCYIgYwClBEGQMUDv+w3XdV3XtW3btm2KoiiKIkmSJMmPULh9gYI5jkO+wOPxHLBso791XZcgiNGjHbokjuPYtk2S5HtWEVS44ziWZVmWtfeSx+OhaZqiqIM/5puKCsBTEwTx4V4o/BA8FFSOx4MD2CfIPlICDVpV1fX19fX19Ww2m81mfT6fIAg0vb8MfWg0TSuVSuVymed5nufD4XAkEuE47iB/q6rq9vZ2pVIxDMMwjHw+n8/nBUE4RC81TdOyrDrEuiQAACAASURBVN3d3a2tLZ7nc7lcOBxmGAZ66btiGEa/369Wq0tLS8vLy3svJRKJmZmZXC4XiUQCgcAhbm6a5nA47Ha729vbtVptampqcnKS4ziGYT6QmrTb7UajMRgMNE0TRTGbzUYikQ/xQ8jRso8cuK5rGEa323306NEf//jHhYUFlmU9Hg/LssdEStbX1x8+fOj3+2VZLhQKsiwfUEoURVldXX306JGiKIPB4Oc//3k0GmVZ9l0NCtd1LcvSNK1YLH733XeBQIBlWUmSPB7PoaWk1Wo9f/78v/7rv/77v/9776ULFy78zd/8jW3bLMseTkosyxoMBru7u3fu3Hn69OmNGzei0SgU9XCl3Zd2u726ulqr1Xq9Xjgc9nq9KCWfJPtLCUEQjuOYpqlpmmEYtm2DsfpRircP0I0NwzBN0zTNkbfydizL0nW98wJN03RdV1V1MBgIgiCK4iEscHCXwMBxHId4UXXvxGAwaLfb5XK5WCxubW2l0+l/+qd/Ao8G6tzr9bquu7GxYVlWt9uNx+OxWOzQRdU0zbKsD/0qwbA1TRNek23bH/TnkKPi6C2Lj49pmv1+v9Pp9Ho9RVGg5xuGMRgMJEniOO6oDK5er1csFldWVpaXl/v9/tWrV//1X/+V4ziO4yAQs7m5+ejRo/X19Xa7XavVLl68eAgpQZAPwWH6DMTter1eo9FQFAU6XqvVarfb0C19Pl8oFAqFQsFgUBRFGJFarVar1WIYhuM4VVUbjYamaRzHiaIYj8fj8TjLsgzDwGgJTofruhAUgPjFYDAYDAa6rpumSRAEwzDtdnttbe3p06der9fr9TqOI4piMpkERXhT+Q3D6HQ63W6XJElZluFD27bL5TJN06IoHtBFGiOgFKMQBsuymUxmamrq1KlTLMuyLAumBMMwiqIUi8XBYLC9vZ3JZAaDAU3TNE13u91ms+m6rs/n83q9PM9zHAfB8mazWa/XOY6TZXk4HG5tba2srGxsbJRKpWfPngWDwYmJiXQ6bdt2u902DIPjOJIku91ur9czDEPX9VAoFI/HA4GAz+ejaVrTNDDi+v0+xKcg1AJRnuFwCNaHIAiCIGxubj58+LBSqaiqGo/HQ6EQz/PBYPBwDhpybDmMlEC7r9frP/74Y6lUglDlo0ePlpaWwHzN5/Pnzp07d+7c3Nwcz/OqqnY6naWlpaWlJa/XGwqFdnd379+/32g0AoFAKpX6/PPPr1+/7vP5fD7fcDis1+s7OzvFYtF13cuXL/t8PoIgKIpqtVqbm5vtdltRFIIgJEnq9Xp379799ttvwQvo9XoMw1iWNTEx8RY50HW93W73ej1BENLp9OihisUiTdOxWAx+8WMCPle73d7e3lYUBaKhL4WBKYqKRqOfffaZJEn379+v1WrNZrPdbouiKIpiqVT68ccfCYLI5/PpdDoSibAsCyL+/Pnzu3fvBgKB2dlZTdPu37//6NGjZ8+ebW9vO47Tbrfn5+dZlh0MBo8fP+71esFgkKKo1dXVtbW1TqfTbrfPnz9/7dq106dP5/N5URTb7Xa1Wi0Wi8Vi8eLFi5cuXfL7/RRFKYoCkWxQfBghHjx48Ic//KFcLluWBbVtWdbc3BxKySfGIS15x3EURdnZ2VlZWRFFkaKoWq2mKIqu65ZlQRiPYZhYLBYKhYbDITSyBw8eBAKBdDoNzsVgMABffWtrK5FIpNNpQRB0XR8MBo1GY2try3Xdqakpx3EgeDEcDpvNZq1W63Q6EB+1bRtmTMFQgsEQLKPXAhGHvVICJo/H46lUKuVyORgMDodD27bfZ7b1EBiGoShKr9cDWwlmamRZHrlaEAyWJAmMguXlZU3TwDAMhUIsy3a7Xagxr9cryzJYW1AnjUZjdXU1FouBNzSKWQAw/WTbdr/fL5VKlUpFlmWGYeCFQpF2d3efP3/O8zzcFtzDnZ2d1dXVdDoN4SGPx2OaZrfbrVarEIHiOC4SicA7gl+ElwXhto9Wt8jH4X2DAo7j6LrOsuzVq1d/9atf9fv9brdbq9XK5fLGxsbMzEw8HjcMw3Xd4XDYbrcpitJ1fWJi4sKFC67rNhqNXq9nmubdu3cdx4lEIm8Rgr0IgpDJZARBaDabtm17vV5RFC9cuPDZZ5+lUilRFF/7V+AmQEn6/X4wGEwmk+BBgOOgKMpwODQMg2GYjxkxgTCwqqokSfI87/V6JUliGOalr5EkSdM0wzAsy1IUpapqpVJhGOYgIzxFUSzLyrJ84cKFUCgENuDCwsLCwkIulwuFQp1Ox+PxgPPCcdzU1NRXX33V7/f7/X6r1Wo2m6BHFEUZhrHvz3k8Hr/fn0wmP/vsMyinoiiJROL69eufffZZOBw+ZE0hx5Ux9BbHcWiaPnv27F/8xV90Op16vX779u2dnZ1Go9HpdMAZcV3XNE1FUWRZpigqm81evXpVkqSVlZXV1dVisbi8vJxIJE6dOnXAOQWe56PRaDQaBSccxuFTp05NTU29xT2BQXg4HIJLz3FcNBoVBIHn+WKxaNs2TOUMh0NIBnv/yjkgEPTVNI0kSY7joEivFmBk7kEmCJhXkUjkIDUGMhQIBAKBQDAYHAwGhmHMzc3Nz897vV6QTpIkLcsaDocEQeRyuV/84heapmma9v3339+8ebNarTYaDUmSDiIlJEmKohiJRKanpw3DqFar3W43EomcPXt2ZmbmcLWEHGfet7cwDCPLcjQaDQQCDMOIohgMBsPhcCgUIkmSZVn4GkmScDUWi01NTaXTaYhuRqNRTdNqtZphGKqq9vt9giA+3HyhaZqDwUBVVfDCBEHw+Xwsy0L0V5IkCO72+3348AMV49BAtijLsoIgeL3eUfWOEUEQwuFwNBqNx+OCIDAMIwhCNBpNpVIEQaiq2mw2XzWXEOR9pYSm6WAwmEqlwLEXRZEkyWAwGAqFLMva2+ZASqLRKEiJIAgsy0ajUcdxlpeXdV0fDocwH3FAH+cQgGWkKArMAdE0DYM/9E+e5wmC6Pf7vV7v40deD8JLUvIhujSEoicmJmKxGFQIQRDRaDSRSCiKoqpqq9Xy+/3HIUEROVa8b4PYO7a/JU4J1jXHcZDhDq7+e/70IYDALWRn1Gq1YrH4xz/+EcKu29vbW1tbqVTKNE2O40Kh0Mcv3nGAoihRFOGFHnVZkJPE+0oJRVE8z/v9/n3dATABINeA47gjWdM1HA4bjUaxWHz06NHTp09hmQwoIMwywOx1OByemJj4+MU7DlAUBWPDMfTvkOPMGMxUzwve/jUIeUJqOYz8MH2ov2DfgCvEJmGy9l0LCTORzWZzY2NDVdVCoQATPSMbHiYpeZ53XbfZbHY6ncFgAJM77/pbh4BlWVgkCXPVEPp9dc0kZPRA2HgwGITDYVjV8trKh1UFB6/e0U8YhgFpZvBfWIcF8VdJkt7yt1C2kf+I/KT4SB7vaM0bMFqoAq0WPnxpQf2r6Lre7/dVVT2ElMCv1+v1lZUV0zTn5+ez2SykvYxurus6LPBrNputVqvb7fr9/o8jJTzPBwIBURRh1hySfcHi2/s1mGNSFKXb7Xa7XYZhEokELB189Z4wazYcDqGGYY3SviWxbRsyWWGaBsQLfnRfEbcsS1GUfr8PCw7fsQ6Qk83HC55BZ+73+zB/CR1gMBh0u13TNGHGhOd5SG2ARglRUk3TGIZxHAdS1xRFeamD7QsM9ZDz0ul0JEnKZDLnz5+PxWLBYBC+o+u6pmnD4fDZs2eQ5dFqtcBY+ACV8TIMw3i9Xr/fHwwG+/1+uVxmWXZychKyXUfL+Xq9XqVS2dzcVBSF4zifzxcOhwVBGEWpYHkRTLuCKrVaLVhqpOv6QaQE0szq9Tqk0oMVCbNarutyHCdJEsuy8DY7nQ5Mq8PNVVVtt9vNZhPCYR+4zpDjxceTEtM0IYO+Xq9Ho9FwOExRVLfbbTQajuPIsuz3+/1+P4yKuq43m81RT4BgLayatSzrEKvUh8MhJLnAShbYlGBvc/d4PAzDQPbXcDiERNLRCp0PDU3THo8nGAxms9nNzc319fWdnR2SJGFpksfjGS1WePjw4ebmpqZpoRcQezYugpl1URQTiYTjOLDvSavVAivjgFLSarVgFQLoxSjnFcKx4XDYtu1er9fr9crlMiQZwgvq9/u1Wq1Wq4XDYb/f/2GrDDlmfNQpPZIkh8MhtHVd1z0eT6lUqlarDMNMTk7G43Gv1wspUjzPUxSladr29vbDhw8hNbNer+u6TpLkyOeHiSGapmHY9Pv9sVgMEkZfijIoilKr1VRVZRhGkiRY87Z3MhUGf57nfT4fLD7keR7yvmFztg9aMxBsCgQCuVxO13WwC9bW1sBYG60M3tnZ2dra6vf7oVAokUhEo1FRFCEMJAhCMBjUNK3ValmWxXGcoij1er3VaqmqurfGRhupmKYJq34gLQjCIrZtg7lRLBbhJoqiVCoViqICgUAkEgmHwxB5gdqr1+uPHz+u1+s+n69cLg8Gg5fy4kGjLctqt9uWZVWrVSj2mzKSkRPKx5MSaOskSTYajXq9DqtOGYbx+XwzMzNXr17NZrMQd6RpOpvNQpbkgwcP7t69m0gkEomEYRiRSAQSK+CeMBXt9XqfPn365MmTZrPp8XhmZmZSqdTeURFcg52dneFwGAwGo9EozFDsnZCG9FZJkuLxOCwpVFU1lUqBe/VxzHWfz5fP50HOisXis2fPbt68CZsSgYMjy3I8Hp+cnJyYmMhkMtFolHihp9Fo9OzZsx6PZ2lpaWVl5fHjx6IoplKpZDIJKgCLemHbKlhqrCjK06dP2+32uXPnLly4AGYLRVGgXLdu3fr6669hI5hUKpXP52dmZjKZDFglPM9PTk7u7OzUarXf/va3gUAgkUjAkuJ0Or139gecRE3Tnjx5AqEW0zQLhcLk5ORHqFLko7GPlMAqMpgg9Pv9oigyDANL3SAhTZIknufhQ+LFoMeyrNfrtW0buivsvcpxHKwf1XW9Wq0+efJEVdVsNnvq1KlIJHL58mUwkiHhOp1OT09Pt9vt27dvP3v2LJvN5nI52A6SpmnTNEepZZIkwYrBtbW1UCg0PT0Ny95fehBw+GmaTiaTyWTy1XgqPKbP50smk/1+v9FowBJk0zShJ3+E1X2wVQKYYDRNP3z48ObNm3u/cP78edh8YGZmJpvNwodQ8+Awqqq6vLxcrVabzaZhGF988UUqlfL5fKlUKhKJQPYqJObDlDzs/BAIBAqFAkzxUBQF765YLMJSY4Ig/vqv/zqfz585cyaRSIBGC4KQz+ebzebt27cfPHggiiK8oFwuFwwGodLAbBm9d9jYoVgswoqHD12ZyEdmfymB1Pjz58/7/f50Og1uCCSqXr58eTQlCVnnMKblcrkvv/zSdV3IgoUFcnBDWGhDUdTPf/5z27ZlWQ6Hw9PT0y+5JLIsnzlzRpbl06dPQ8wCgimyLEPgQJKkYDDIsmwymYQ82nPnzqXT6ampqUQi8ZLxDEMlSZIwSRkIBN4UBPH7/ZOTk2AdwLpkKNjHXCUMCXKzs7P/+I//ePbs2b2X4vH41NRUJpN5tfwsy/r9/tnZWYqiLly4oKqq4zjQt1VVVRQlGAym02lIVKUoan5+Ph6Pw9+CrdHv92EYiEQiwWAwk8n84he/gC9MT0+fPn06HA6PzA2GYSYmJhiGyWaz165dg0YCL0gQBBg8UqmUx+MBQ29hYcHv9+u6nk6n0+l0IpH4wLWIfGz2kZKRPXz+/Pnz588TeyJ80Wh0NPiPPoTIRS6Xy+Vy8IllWXujfYlE4sqVK5lMBmyZ0d++1Feht585c2avk/9S2eCTZDKZSCTOnTs3Mhxe+810Og2rSN50NwD6Qz6f3/ebHw6WZWER06lTp17NBHnTM0JIBdRk30qTJCkcDv/sZz+DDyGnZnd31+PxwM4A4CQmk8k3/SjDMKO3/Kafg/+CqRWPx+fn599SfuSkc9BYyWvf/ZsaxNsbCjhB+2a1HbzNHfCbB2y+x6SVH67LvWulvfrv0ScHfEEH/7ljUrHIBwJPJEEQZAx88Bkcj8cDu28VCgXHcSYnJ2EN8SdzrtJotW4ikTh//jzsOHnoQ3COBJgeDoVCZ86cGQ6H6XQadmA96nIhJ4mPISWiKMIS/qmpqdGq009GSogXCWb5fB7mqmGT6hP0gKCGiUQC5m5gcgfTVZF34oNLCcwBjXbQ+dA/dyRAWAGydY+6LIcBAhkQHz3qsiAnlRMzciIIcpxBKUEQZAyglCAIMgZQShAEGQMoJQiCjAGUEgRBxgBKCYIgYwClBEGQMYBSgiDIGEApQRBkDKCUIAgyBlBKEAQZAyglCIKMAZQSBEHGwD6bDLiuC8ejOI4z2qIVduuD/fXgUIXRpb27+I3+9tCX9v4Q8eL82jddem3xXroEn4+r5HCrA5b8IMU7eMnfv2L3lvz9K3bfJvHS3yKfHvtIiaIoOzs7Ozs729vb29vb8GE8Hs9kMnAStaqqpVKpXC7DpXQ6nc1mYV/yXq+3vb3daDQIgqAoKpPJZLNZ2Fus1Wptb293Oh2CIDiOy2az6XQa7lCr1ba3tweDAUEQXq83m82ONkbf2dkplUqaphEEIctyNpsNh8MEQdi2XSqVtre34ZiVSCQy2pNd1/VSqVQqleAOiUQim83CfvSKomxvb1erVbgExYP9frrd7vb2drPZJAgCDuXJZDLQ8ZrN5vb2drfbJQiC5/lsNjvafbpSqZRKJUVRCILw+XyZTCYWi8ElKB5suw+bucOpepZlwSXoeNFoNJvNwtGicJzY7u4u3CGZTMI5QQRBDAaD7e3tWq1GEARJklA82HO73W6XSqVWq0UQBGwHn8lkoAPX6/VSqdTr9QiCEEUxk8mMdoEul8vb29vD4ZAgCL/fn81mYQNw13WheLBTfygUymazgUCAIAjTNLe3t0ulEghQLBbLZrPQJIbD4fb29t4mkclkMpkM7Hf/9vaGnFz2kRJVVVdXV3/44YfFxcXFxUX4cG5ubmFhAXp4o9GAk1Dg0pUrVxYWFqAbl0qlxcXF58+fEwTBMMz8/PzCwgKozOrq6uLi4tbWFkEQPp9vYWFhtPv50tLS4uIi9JNoNLqwsAA73RMEcefOncXFRegM2Wx2YWFhZmaGIAjTNKF40FdnZmYWFhbgmJher3f79u0ffvgB7nD+/PmFhQXYgalWqy0uLi4tLcElKB50hq2trcXFxdXVVYIgOI5bWFhYWFiAszWeP3++uLgI2iTL8sLCwpUrV+AODx48uH37NkhnIpGYn5+fm5uDS1A8UJl8Pr+wsDA1NUUQhKZpcAlE8PTp0wsLC6BNnU5ncXHx3r17cIeLFy8uLCyAAFUqlcXFxSdPnhAEQZIkFA/0sVgsLi4urq+vEwQhCAJcAhF8+vTp7du3QZtCodD8/PylS5fg5j/++OPi4mK73SYIIpVKLSwsnD59miAI27Zv3769uLgIKjM1NbWwsADb8SuKsri4ePv2bZCSs2fPLiwswJEUzWZzcXFxb5OYn5+fn5+H3fzf3t6Qk8s+UsJxXCqVOnfuHM/zI8Mhk8kUCgXQi36/7/V6p6en4dLk5GShUIBmHYvF/H7/uXPnCIKgKKpQKBQKBeiQwWAwGAxCr+N5vlAojO7g9XrD4TDohc/nKxQKo3MwWJaNxWLQrMPhcKFQgLYLxwAnEgnokIlEolAogMEyHA4FQRidPpXL5QqFAgz7qVRKkqTZ2Vm4ND09XSgUYEPTSCTi9/s/++wzgiBomoaSgz0ly3IwGIRhXxTFvafMiaIYjUb7/T58rVAoZDKZ/6tlmo7H47quw81nZmbAYDFNE2oYrJJUKlUoFOBEdEVR4NgquMPExEShUAClSyQSkiRBbydJEmoPNDocDsuyDELMsiyUHKwSn88XCoXAEvR6vYVCYXRznuej0SgoXTAYLBQKIGeO48CetaDRsVisUCiAEOu6vrdJpNPpQqEABstgMHi1SaTTaTCpkE+VfaQE2lw6nf7Zz36mqip8yPO8IAggCrZtX79+HZwOgiDg2LfRkbRffvkl9B+SJAVBEEURmrVhGKqqgtkMm7+O2tmlS5eGw6FlWQRB0DQtCMJov+KLFy8Oh0PQCzhGC/wR13UvX748OhkXTp8Dg99xnPn5eVCfl0puWdbnn3++t+SiKMIADielQ/+B0wIFQYCS67o+HA6h5HBo4ZtKLori6ACqixcvwhlXBEGwLCsIwqjkV65cGQ6Hr5bctu1r167tLbkoilCxlmV98cUXULEEQUDxoOSGYYwOMINTUEeni71UclEURxV76dIlVVVHFQt7u0Lx4KFeLbnjOHubBMdxoiiOmsS1a9deahJ7Kwr5JNlHSmiahnMnP05pEAQ5oeBkMIIgYwClBEGQMYBSgiDIGEApQRBkDKCUIAgyBlBKEAQZAyglCIKMAZQSBEHGAEoJgiBjAKUEQZAxgFKCIMgYQClBEGQMoJQgCDIGUEoQBBkDKCUIgowBlBIEQcYASgmCIGNgn13UjgrLsjRNa7fbGxsbpVJpOBwOh8N4PJ5MJpPJZCKR8Hq9R13G/8NxnEqlUqlUeJ6XXgC7Fh4T2u027ERfLBZhr3yfzzczMzM9PS1JktfrxTMlkPfnmEqJaZr9fn9zc/PmzZvffvtts9lstVoXL168evXq5cuXoQMcdRn/D9d1d3Z27t27FwgEUqlUIpFgGOZYSUmr1VpdXb1169bNmzdhl/9kMvkP//APoijG4/HRhrsI8j4cOylxHMe27WazubKysr6+bppmKpWKRCK6rgeDwU6ns7u7C5ue+/3+47DzsOu6uq73ej2apmEf5tFpUkeL4ziapsGpNM+ePVMUBU6xsW1bFMV+v//gwYNTp07BBs4sy45O2EKQQ3DspMS2bV3XK5XKvXv3dnZ2MpnM3Nycz+fz+/2rq6vPnz+v1Wpra2uO4+Tz+eMgJccWx3G63W69Xt/Y2Hj69Gk4HP7Vr34VCAR0Xe92uxsbG4uLix6PJxKJhMNhmqZRSpD34dhJiWVZMMjXarVOpzM3Nzc3NxcOh8PhMEQlDMMol8ssy0YikUgkMjr+EnkJ13VVVW02m71eT9d1WZbn5uYymYymaTs7O9VqtfECjuO8Xi8cPYEgh+PYDUS2bWuaZlkWnNUCR1h5vV6GYWRZTiQSgiB0Op1araYoim3bo/NxkZdwXVfTtG63S1FULBaLRCKSJImiKEmS3++XZdnn81mWVavVer0eHN+DIIfmOEqJruumaVIUxfO81+v1+Xw8z1MU5fV6Y7EYz/O9Xq/ZbKqqalnWMQlMHENASnq9nsfjCYfDoVAITvkSRdHr9cJMk2VZzWaz3+9jNSLvyXGUEk3TQEo4jmNZduTGcxwnSRLDMJqmDQYDMF6wD7wJCLt2u13HcbxeLxzuR5Kkx+OBc/a8Xq/rur1eb3TmIYIcmmMnJRArMU2TJEnQkZGUMAwjSRJN05qmKYqi67pt2yglb2Lk4Ni27fV64QBWkiQpiqJpGk4OdRyn3+9rmobViLwnx05KTNMcDAaKoqD3fmhc17Vt2zTN4XA4GAx0XceIEvKhOaZSAnGQoy7LScV1XcdxTNMET1DXdTQ6kA/NsZMSmqYFQYA461GX5aQCARGapiEmwrIszpcjH5pjJyUQEBFFEdMcDg1ICcMwgiDAgiBMP0M+NMeuhYFVwnEcQRCmadq2PYqtWpYFcw0sy/I8zzCMx+PBTvJaQE14nvf7/RCoBjcHfB/btg3D0HWdJEnMmkfGwrFrQDAHzDCM4ziGYRiGMZrxNQyj3++bpsnzPCSb0DSNpvubIEmS53lZlj0ezyj8tDciqyiKx+ORZVkQBJQS5D05dg0IMtMYhoEEk+FwqKqqYRiO46iq2mq1dF2XJCkQCAiCgCtH3sJISgiC6HQ63W4XZtl1XVdVVVGUwWBAURQkE2NkCnlPjl0/pGma4ziapm3bHg6HvV6v3W4rimKaZq/XK5fLw+EwEAjEYjHoACglb2Lk4EB2fKPRGAwGMD3c7/d7vV6/36dpOhaL+f1+lBLkPTl2oU1wcERRFEURxtLNzc1+v9/v98vlcrPZFEUxGo0mk0lJkrADvAWIgwSDQZZldV1vtVrb29uGYWiaVq/XQUd8Pl80GvX5fFiTyHtyTKUkHo9fvnw5GAw2m81vvvnGcRzHcWiaZhgmFotNT0/ncjmfz3fUhT3WeDweMDcajUa32202m7/73e8g9kTTdDQaXVhYmJmZCYfD6OAg789xlBKKohKJBORE/O53v7t582a9Xq/X6/Pz859//nksFpuamkqlUkdd0uMOSInf74dNBm7evPn73/9+fX2dIIhsNvsv//Iv8/PzqVQqHA6jjiDvz7GTEgBs74mJib/8y7/M5XKQSp/NZicmJiYmJiRJOuoCniRCoVChUCBJMp1Ot1otgiBkWb5w4UIymfT5fBhsQsbCMZUShmFomhZFMZlM/vznP4dsCHBw4NJRF/AkEQqFZFnO5/NffvklrAD2eDwcx3Ec5/F4cDYdGQvHtE/C3miQsnl8doQ+oYDPyLIs1iTy4UDjFkGQMXBMrZITBEmSwWBwcnJSkiTY9BD9L+QnCDb698Xj8aTTadh9lud5nudhARGC/KRAKXlfSJIMBAKBQOCoC4IgRwnGShAEGQMoJQiCjAGUEgRBxgBKCYIgY+AEhF0tyyqXy+VymWEYjuNkWQ6HwzzPH3W5/g/HcaB4sCETHFV1DCdxbNu2LKvdbm9tbSmKkkwmE4kEx3E8z2PCK/L+nAApMU1za2vr3r17cFLfxMSEKIrHR0pc193d3b17964sy+l0OplMguQddbleBjZhLJfLi4uL1Wr1ypUrHMcFAgGO41BKkPfnWEuJruuNRgM66nfffTcxMVEoFGBHtaMu2v+P67q6rvf7fTg20DTN43boDOyPW6lUNjc3l5eXl5eXFUUpFAp4Pcm1eQAAA69JREFUtiEyRo61lKiqura2dv/+/Vu3bt26dctxnGw2e9SFOnlYlmUYxubm5p///Ofl5eVqtSoIgqZpR10u5JPi2EmJ67qu66qq2ul0yuXy1tZWtVrVNA0WBKMpfnBc17UsyzTNSqWyu7u7urra6XTAaMIFwcjYOY5SYtt2vV5/+PDh5uYmiAjsmTYxMcGy7FEX8MTguu5wOOz3+w8ePPj+++8JgoAN0zY3N13XPT7BJuTT4DhKCUQfYGNX2MlVkqRoNCrLMsMwR13AEwNYJYZh9Hq9arUaiUTS6TRYfIqi4JpDZLwcu/YEm3pFo9ErV67MzMzAgTjr6+tra2tHXbQThsfjEUWRoqgrV65EIhGWZUOhUK1W43leUZSjLh3yqXHspIQkSYqiwuFwOByGT2AUhU1JkYMD5+DAUTjnzp0zDGM4HFqWdQwnqpFPAMx2RRBkDKCUIAgyBlBKEAQZAyglCIKMAZQSBEHGAEoJgiBjAKUEQZAxgFKCIMgYQClBEGQMoJQgCDIGToaUeDwemqbh7FtcHf8+eDweiqKgMrEmkTFy7NbgvApsMkAQBGxEGgqFBEE46kKdPCiK4jgumUxeu3at1+vlcrlgMCgIAgoKMhZOgJTQNJ3L5VKpFEmSJEnCuHrUhTp5UBTl8XgSiUQkEnEch6Zp2EoKpQQZCydASkiShHZ/1AU58WBNIh+OkxErQRDkmIMD1PtCkmQwGJyampIkKRKJSJKEwz7yEwQb/fvi8XgymYzP56Npmud5juNwbyHkJwhKyftCkqQsy7IsH3VBEOQowVgJgiBjAKUEQZAxgFKCIMgYQClBEGQMoJQgCDIGUEoQBBkDKCUIgowBlBIEQcYASgmCIGMApQRBkDGAUoIgyBhAKUEQZAyglCAIMgZQShAEGQMoJQiCjAGUEgRBxgBKCYIgYwClBEGQMYBSgiDIGEApQRBkDKCUIAgyBlBKEAQZAyglCIKMAZQSBEHGAEoJgiBjAKUEQZAxgFKCIMgYQClBEGQMoJQgCDIGUEoQBBkDKCUIgowBlBIEQcYASgmCIGMApQRBkDGAUoIgyBhAKUEQZAyglCAIMgboN13Y2dn55ptvSqXSxywNgiAngm+//bbdbqdSqdEnb5SSjY2N3/72t5IkfZSCIQhykmi3241GY+8nb5SSfr/f7/c/fJEQBPkUIF3XPeoyIAhy4sGwK4IgYwClBEGQMYBSgiDIGEApQRBkDKCUIAgyBlBKEAQZAyglCIKMgf8PhXdShu/Vi/sAAAAASUVORK5CYII=;" vertex="1" parent="1">
                    <mxGeometry x="40" y="455" width="366" height="259" as="geometry"/>
                </mxCell>
            </root>
        </mxGraphModel>
    </diagram>
</mxfile>